<svg xmlns="http://www.w3.org/2000/svg" xmlns:xlink="http://www.w3.org/1999/xlink" viewBox="0,0,256,256" width="50px" height="50px" fill-rule="nonzero"><g fill="#9ecdff" fill-rule="nonzero" stroke="none" stroke-width="1" stroke-linecap="butt" stroke-linejoin="miter" stroke-miterlimit="10" stroke-dasharray="" stroke-dashoffset="0" font-family="none" font-weight="none" font-size="none" text-anchor="none" style="mix-blend-mode: normal"><g transform="scale(5.12,5.12)"><path d="M5.5,7c-2.46875,0 -4.48828,2.01563 -4.5,4.48438c0,0 0,0.00391 0,0.00781c0,0.00391 0,0.00391 0,0.00781v27c0,2.47266 2.02734,4.5 4.5,4.5h39c2.47266,0 4.5,-2.02734 4.5,-4.5v-27c0,-0.00391 0,-0.00391 0,-0.00781c0,-0.00391 0,-0.00781 0,-0.00781c-0.01172,-2.46875 -2.03125,-4.48437 -4.5,-4.48437zM8.10156,9h33.80078l-16.90234,11.78125zM4.77344,9.11719l20.22656,14.10156l20.23047,-14.10156c1.02344,0.30859 1.76172,1.23828 1.76953,2.37109c-0.00391,0.21094 -0.21875,0.63281 -0.53125,0.97266c-0.31641,0.34375 -0.625,0.55859 -0.625,0.55859l-0.00391,0.00781l-20.83984,14.75l-20.83984,-14.75l-0.00391,-0.00781c0,0 -0.30859,-0.21484 -0.625,-0.55859c-0.3125,-0.33984 -0.52734,-0.76172 -0.53125,-0.97266c0.00781,-1.13281 0.74609,-2.0625 1.77344,-2.37109zM3,14.65234l0.00781,0.00781l0.00781,0.00391v0.00391l2.98438,2.10938v24.22266h-0.5c-1.39062,0 -2.5,-1.10937 -2.5,-2.5zM47,14.65234v23.84766c0,1.39063 -1.10937,2.5 -2.5,2.5h-0.5v-24.22266l2.98438,-2.10937v-0.00391zM8,18.19141l17,12.03125l17,-12.03125v22.80859h-34z"></path></g></g></svg>